<svg width="18" height="10" viewBox="0 0 18 10" fill="none" xmlns="http://www.w3.org/2000/svg">
<path fill-rule="evenodd" clip-rule="evenodd" d="M17.82 1.03L16.918 0.172C16.798 0.057 16.659 0 16.503 0C16.347 0 16.208 0.057 16.088 0.172L9 6.921L1.912 0.172C1.792 0.057 1.654 0 1.497 0C1.341 0 1.203 0.057 1.082 0.172L0.181 1.031C0.06 1.145 0 1.277 0 1.426C0 1.575 0.061 1.706 0.181 1.821L8.585 9.824C8.705 9.939 8.844 9.996 9 9.996C9.156 9.996 9.295 9.939 9.415 9.824L17.82 1.821C17.94 1.706 18 1.575 18 1.426C18 1.277 17.94 1.145 17.82 1.03Z" fill="#CCCCCC"/>
</svg>
