<svg width="30" height="30" viewBox="0 0 30 30" fill="none" xmlns="http://www.w3.org/2000/svg">
<path opacity="0.5" fill-rule="evenodd" clip-rule="evenodd" d="M17.6528 14.9997L29.4504 3.20231C30.1832 2.46903 30.1832 1.28105 29.4504 0.54902C28.7177 -0.183007 27.5311 -0.183007 26.7983 0.54902L15.0006 12.3464L3.20169 0.54902C2.46895 -0.183007 1.2823 -0.183007 0.549558 0.54902C-0.183186 1.28105 -0.183186 2.46903 0.549558 3.20231L12.3472 14.9997L0.549558 26.7971C-0.183186 27.5291 -0.183186 28.7183 0.549558 29.4504C0.91593 29.8164 1.39609 30 1.87625 30C2.35516 30 2.83532 29.8164 3.20169 29.4504L15.0006 17.653L26.7983 29.4504C27.1647 29.8164 27.6448 30 28.1238 30C28.6039 30 29.0841 29.8164 29.4504 29.4504C30.1832 28.7183 30.1832 27.5291 29.4504 26.7971L17.6528 14.9997Z" fill="#282D6F"/>
</svg>
